<?xml version="1.0" encoding="UTF-8"?>
<svg version="1.1" xmlns="http://www.w3.org/2000/svg" width="135" height="139">
<path d="M0 0 C0 9.57 0 19.14 0 29 C2.31 29 4.62 29 7 29 C9.07641602 29.67089844 9.07641602 29.67089844 10.75390625 30.609375 C11.38103516 30.95226562 12.00816406 31.29515625 12.65429688 31.6484375 C13.28400391 32.01195312 13.91371094 32.37546875 14.5625 32.75 C15.51286133 33.27207031 15.51286133 33.27207031 16.48242188 33.8046875 C20.45810992 36.01567776 24.21741985 38.47139935 28 41 C29.73706008 41.98159312 31.48703402 42.9407336 33.25 43.875 C37.77971014 46.31171399 42.19462387 48.88588979 46.5859375 51.5625 C49.60130018 53.35805577 52.68485935 55.00756985 55.796875 56.62890625 C61.68640663 60.29419987 61.68640663 60.29419987 64 63 C64.64200091 65.84226023 64.89113889 67.8406463 64.8671875 70.6796875 C64.8776712 71.41067657 64.88815491 72.14166565 64.8989563 72.89480591 C64.91176004 74.43616678 64.90916907 75.97772354 64.89208984 77.51904297 C64.87508024 79.86393859 64.93253124 82.1990395 64.99609375 84.54296875 C65.10280315 95.20049842 65.10280315 95.20049842 62.51757812 99.41894531 C60.4552075 101.31553387 58.44582084 102.63687851 56 104 C55.19739746 104.50257324 54.39479492 105.00514648 53.56787109 105.52294922 C50.99863251 107.09196128 48.3900099 108.55361287 45.75 110 C43.87609103 111.04779973 42.00239151 112.09597411 40.12890625 113.14453125 C39.2383252 113.63904785 38.34774414 114.13356445 37.43017578 114.64306641 C34.49068108 116.28438764 31.58696227 117.97653808 28.6875 119.6875 C27.34171875 120.46867187 27.34171875 120.46867187 25.96875 121.265625 C24.32989941 122.22305876 22.6932265 123.18437397 21.06640625 124.16210938 C18.94797904 125.43434918 16.81855946 126.68656005 14.6875 127.9375 C14.02903076 128.3399292 13.37056152 128.7423584 12.69213867 129.15698242 C8.31916695 131.69493199 5.18763173 132.53257056 0 132 C-1 131 -1 131 -1.11352539 128.22436523 C-1.10828857 127.01466064 -1.10305176 125.80495605 -1.09765625 124.55859375 C-1.09443359 123.25341797 -1.09121094 121.94824219 -1.08789062 120.60351562 C-1.07953401 119.2148431 -1.07106905 117.82617123 -1.0625 116.4375 C-1.05748666 115.04492344 -1.05292347 113.65234519 -1.04882812 112.25976562 C-1.03699434 108.8398013 -1.0205088 105.41992156 -1 102 C-1.57572754 102.04205566 -2.15145508 102.08411133 -2.74462891 102.12744141 C-8.40170393 102.3653503 -11.58576885 101.66221007 -16.375 98.375 C-17.49190216 97.63302155 -18.6104194 96.89346904 -19.73046875 96.15625 C-20.80941406 95.4446875 -21.88835938 94.733125 -23 94 C-24.88246261 92.93436029 -26.77763585 91.89071276 -28.6875 90.875 C-33.03029944 88.54962258 -37.24517363 86.06742623 -41.453125 83.5078125 C-44.18334168 81.89145722 -46.95581536 80.37781822 -49.75 78.875 C-53.66299867 76.75822247 -57.39772416 74.61164998 -61 72 C-61.53544434 71.62198242 -62.07088867 71.24396484 -62.62255859 70.85449219 C-64.74893222 67.99168927 -64.50755653 64.95188249 -64.5390625 61.515625 C-64.55141937 60.78180603 -64.56377625 60.04798706 -64.57650757 59.29193115 C-64.59606842 57.73864709 -64.607305 56.18523914 -64.61083984 54.63183594 C-64.62487729 52.27064 -64.69212914 49.91481189 -64.76171875 47.5546875 C-64.94430963 34.91455644 -64.94430963 34.91455644 -60.6484375 30.421875 C-58.09382616 28.35034938 -57.37859174 28 -54 28 C-54 27.34 -54 26.68 -54 26 C-47.375 23 -47.375 23 -44 23 C-44 22.34 -44 21.68 -44 21 C-38.25 18 -38.25 18 -36 18 C-36 17.34 -36 16.68 -36 16 C-35.195625 15.87625 -34.39125 15.7525 -33.5625 15.625 C-32.716875 15.41875 -31.87125 15.2125 -31 15 C-30.67 14.34 -30.34 13.68 -30 13 C-25.5 10 -25.5 10 -23 10 C-22.67 9.34 -22.34 8.68 -22 8 C-21.34 8.33 -20.68 8.66 -20 9 C-20 8.34 -20 7.68 -20 7 C-19.01 7 -18.02 7 -17 7 C-17 6.34 -17 5.68 -17 5 C-15.35 4.67 -13.7 4.34 -12 4 C-12 3.34 -12 2.68 -12 2 C-7.46572345 -0.19843711 -5.56891419 0 0 0 Z M1 30 C0.13036913 32.99706695 -0.11763099 35.64956526 -0.09765625 38.765625 C-0.09443359 39.65507813 -0.09121094 40.54453125 -0.08789062 41.4609375 C-0.07951172 42.38132812 -0.07113281 43.30171875 -0.0625 44.25 C-0.05798828 45.18585937 -0.05347656 46.12171875 -0.04882812 47.0859375 C-0.03706918 49.39069041 -0.02063426 51.69531227 0 54 C0.66 54.33 1.32 54.66 2 55 C2 46.75 2 38.5 2 30 C1.67 30 1.34 30 1 30 Z M-62 35 C-63.35105145 36.12427635 -63.35105145 36.12427635 -63.11352539 39.05102539 C-63.11336634 40.39991271 -63.10767612 41.74880614 -63.09765625 43.09765625 C-63.0962413 43.80651474 -63.09482635 44.51537323 -63.09336853 45.24571228 C-63.08775443 47.51801712 -63.07519963 49.79022475 -63.0625 52.0625 C-63.05748681 53.59960796 -63.05292359 55.13671745 -63.04882812 56.67382812 C-63.03778042 60.44925642 -63.02050641 64.22461171 -63 68 C-62.34 68.33 -61.68 68.66 -61 69 C-61 57.78 -61 46.56 -61 35 C-61.33 35 -61.66 35 -62 35 Z M-5.3125 38.625 C-9.69384599 41.98244448 -14.37096863 44.2850981 -19.36328125 46.60546875 C-21.74863147 47.86705398 -23.25245848 48.97810042 -25 51 C-23.78105119 54.65684643 -22.88990216 54.94316328 -19.625 56.8125 C-18.73039062 57.32941406 -17.83578125 57.84632812 -16.9140625 58.37890625 C-13.04843256 60.52935722 -9.16107128 62.63647938 -5.25 64.703125 C-3 66 -3 66 -1 68 C-0.68115234 70.88916016 -0.68115234 70.88916016 -0.5859375 74.5390625 C-0.54726562 75.84101562 -0.50859375 77.14296875 -0.46875 78.484375 C-0.43729237 79.86457862 -0.40604509 81.24478704 -0.375 82.625 C-0.33682066 84.01304541 -0.29776895 85.40106711 -0.2578125 86.7890625 C-0.16327057 90.19257185 -0.07772103 93.59607165 0 97 C0.59675537 96.59442871 1.19351074 96.18885742 1.80834961 95.77099609 C2.99956421 94.96782959 2.99956421 94.96782959 4.21484375 94.1484375 C5.38841431 93.35445557 5.38841431 93.35445557 6.58569336 92.54443359 C9.93878072 90.39946133 13.40332249 88.70024755 17 87 C17 86.34 17 85.68 17 85 C17.763125 84.731875 18.52625 84.46375 19.3125 84.1875 C21.91229902 83.0387516 23.10215992 82.0314124 25 80 C24.45472656 79.63648438 23.90945312 79.27296875 23.34765625 78.8984375 C21.7529885 77.83532567 20.1635289 76.76437812 18.578125 75.6875 C16.06985442 73.99821871 16.06985442 73.99821871 13.609375 72.6875 C6.54422419 68.65027097 4.17753558 63.2969835 1 56 C0.67 55.67 0.34 55.34 0 55 C-0.15620555 53.58672053 -0.25056173 52.1664541 -0.31640625 50.74609375 C-0.35830078 49.89208984 -0.40019531 49.03808594 -0.44335938 48.15820312 C-0.48267578 47.26037109 -0.52199219 46.36253906 -0.5625 45.4375 C-0.60568359 44.53580078 -0.64886719 43.63410156 -0.69335938 42.70507812 C-0.79978142 40.47021515 -0.90179988 38.23523692 -1 36 C-2.77140677 36 -3.98035442 37.5493545 -5.3125 38.625 Z M4 58 C5 60 5 60 5 60 Z M5 60 C5.34227572 62.97065509 5.34227572 62.97065509 6 66 C6.66 66.33 7.32 66.66 8 67 C7.34 64.69 6.68 62.38 6 60 C5.67 60 5.34 60 5 60 Z M1 98 C-0.46098845 100.9219769 -0.11134901 103.49893475 -0.09765625 106.7578125 C-0.0962413 107.42086395 -0.09482635 108.08391541 -0.09336853 108.76705933 C-0.08776754 110.88641863 -0.075215 113.00567259 -0.0625 115.125 C-0.05748512 116.56119639 -0.05292219 117.99739444 -0.04882812 119.43359375 C-0.03779782 122.95576345 -0.02053259 126.47787145 0 130 C0.66 130.33 1.32 130.66 2 131 C2 120.11 2 109.22 2 98 C1.67 98 1.34 98 1 98 Z " fill="#F27427" transform="translate(65,4)"/>
<path d="M0 0 C-0.556875 0.268125 -1.11375 0.53625 -1.6875 0.8125 C-4.0839757 1.99898377 -4.0839757 1.99898377 -6.5625 3.625 C-9 5 -9 5 -12 5 C-12 5.66 -12 6.32 -12 7 C-12.54914062 7.26554688 -13.09828125 7.53109375 -13.6640625 7.8046875 C-17.38605766 9.70925359 -20.95138597 11.87489577 -24.55078125 14 C-26.95180772 15.39221467 -29.352542 16.74435867 -31.79296875 18.0625 C-32.42090332 18.40651855 -33.04883789 18.75053711 -33.69580078 19.10498047 C-35.48155739 20.08077057 -37.2738426 21.04458432 -39.06640625 22.0078125 C-42.15395675 24.10455119 -43.55200748 25.57945917 -45 29 C-44.67 29.99 -44.34 30.98 -44 32 C-45.78346291 35.03188696 -46.59575156 35.86525052 -50 37 C-50.33 42.61 -50.66 48.22 -51 54 C-52.485 54.495 -52.485 54.495 -54 55 C-54.80563638 57.10584438 -54.80563638 57.10584438 -55.1875 59.5625 C-55.42533203 60.80193359 -55.42533203 60.80193359 -55.66796875 62.06640625 C-55.77753906 62.70449219 -55.88710938 63.34257813 -56 64 C-48.85869383 65.51942684 -43.18437225 64.36473097 -36.5 61.5 C-32.39898984 59.74242422 -28.36502332 58.84133103 -24 58 C-24.33 56.35 -24.66 54.7 -25 53 C-19.40578846 55.69760398 -14.1243656 58.46988147 -9 62 C-7.75564363 62.71820146 -6.50545436 63.42637961 -5.25 64.125 C-2 66 -2 66 0 68 C0.31884766 70.79736328 0.31884766 70.79736328 0.4140625 74.3203125 C0.45273438 75.57714844 0.49140625 76.83398438 0.53125 78.12890625 C0.5621875 79.44761719 0.593125 80.76632813 0.625 82.125 C0.66318029 83.46486918 0.70223206 84.80471383 0.7421875 86.14453125 C0.8367203 89.42954619 0.92227156 92.71455138 1 96 C1.91394531 95.22269531 2.82789062 94.44539063 3.76953125 93.64453125 C11.75 87 11.75 87 17 87 C17 86.34 17 85.68 17 85 C19.31 83.68 21.62 82.36 24 81 C20.14519404 76.75412677 15.68171844 74.47182899 10.6796875 71.78125 C7.9849131 69.98997139 7.06408506 68.99520239 6 66 C11.86160966 68.7521779 17.51717751 71.78687445 23.0625 75.125 C24.16722656 75.78757812 25.27195312 76.45015625 26.41015625 77.1328125 C29 79 29 79 30 82 C26.7121022 83.84015498 23.41908674 85.67095047 20.125 87.5 C19.18785156 88.02464844 18.25070313 88.54929687 17.28515625 89.08984375 C16.38925781 89.58613281 15.49335937 90.08242187 14.5703125 90.59375 C13.74289551 91.05458984 12.91547852 91.51542969 12.06298828 91.99023438 C10 93 10 93 8 93 C8 93.66 8 94.32 8 95 C6.68 95.33 5.36 95.66 4 96 C3.67 107.55 3.34 119.1 3 131 C4.32 131.33 5.64 131.66 7 132 C4.66705225 132.04241723 2.33297433 132.04092937 0 132 C-1 131 -1 131 -1.11352539 128.22436523 C-1.10828857 127.01466064 -1.10305176 125.80495605 -1.09765625 124.55859375 C-1.09443359 123.25341797 -1.09121094 121.94824219 -1.08789062 120.60351562 C-1.07953401 119.2148431 -1.07106905 117.82617123 -1.0625 116.4375 C-1.05748666 115.04492344 -1.05292347 113.65234519 -1.04882812 112.25976562 C-1.03699434 108.8398013 -1.0205088 105.41992156 -1 102 C-1.57572754 102.04205566 -2.15145508 102.08411133 -2.74462891 102.12744141 C-8.40170393 102.3653503 -11.58576885 101.66221007 -16.375 98.375 C-17.49190216 97.63302155 -18.6104194 96.89346904 -19.73046875 96.15625 C-20.80941406 95.4446875 -21.88835938 94.733125 -23 94 C-24.88246261 92.93436029 -26.77763585 91.89071276 -28.6875 90.875 C-33.03029944 88.54962258 -37.24517363 86.06742623 -41.453125 83.5078125 C-44.18334168 81.89145722 -46.95581536 80.37781822 -49.75 78.875 C-53.66299867 76.75822247 -57.39772416 74.61164998 -61 72 C-61.53544434 71.62198242 -62.07088867 71.24396484 -62.62255859 70.85449219 C-64.74893222 67.99168927 -64.50755653 64.95188249 -64.5390625 61.515625 C-64.55141937 60.78180603 -64.56377625 60.04798706 -64.57650757 59.29193115 C-64.59606842 57.73864709 -64.607305 56.18523914 -64.61083984 54.63183594 C-64.62487729 52.27064 -64.69212914 49.91481189 -64.76171875 47.5546875 C-64.94430963 34.91455644 -64.94430963 34.91455644 -60.6484375 30.421875 C-58.09382616 28.35034938 -57.37859174 28 -54 28 C-54 27.34 -54 26.68 -54 26 C-47.375 23 -47.375 23 -44 23 C-44 22.34 -44 21.68 -44 21 C-38.25 18 -38.25 18 -36 18 C-36 17.34 -36 16.68 -36 16 C-35.195625 15.87625 -34.39125 15.7525 -33.5625 15.625 C-32.716875 15.41875 -31.87125 15.2125 -31 15 C-30.67 14.34 -30.34 13.68 -30 13 C-25.5 10 -25.5 10 -23 10 C-22.67 9.34 -22.34 8.68 -22 8 C-21.34 8.33 -20.68 8.66 -20 9 C-20 8.34 -20 7.68 -20 7 C-19.01 7 -18.02 7 -17 7 C-17 6.34 -17 5.68 -17 5 C-15.35 4.67 -13.7 4.34 -12 4 C-12 3.34 -12 2.68 -12 2 C-7.8794254 0.00214565 -4.54805635 -0.17835515 0 0 Z M-62 35 C-63.35105145 36.12427635 -63.35105145 36.12427635 -63.11352539 39.05102539 C-63.11336634 40.39991271 -63.10767612 41.74880614 -63.09765625 43.09765625 C-63.0962413 43.80651474 -63.09482635 44.51537323 -63.09336853 45.24571228 C-63.08775443 47.51801712 -63.07519963 49.79022475 -63.0625 52.0625 C-63.05748681 53.59960796 -63.05292359 55.13671745 -63.04882812 56.67382812 C-63.03778042 60.44925642 -63.02050641 64.22461171 -63 68 C-62.34 68.33 -61.68 68.66 -61 69 C-61 57.78 -61 46.56 -61 35 C-61.33 35 -61.66 35 -62 35 Z M1 98 C-0.46098845 100.9219769 -0.11134901 103.49893475 -0.09765625 106.7578125 C-0.0962413 107.42086395 -0.09482635 108.08391541 -0.09336853 108.76705933 C-0.08776754 110.88641863 -0.075215 113.00567259 -0.0625 115.125 C-0.05748512 116.56119639 -0.05292219 117.99739444 -0.04882812 119.43359375 C-0.03779782 122.95576345 -0.02053259 126.47787145 0 130 C0.66 130.33 1.32 130.66 2 131 C2 120.11 2 109.22 2 98 C1.67 98 1.34 98 1 98 Z " fill="#F8A943" transform="translate(65,4)"/>
<path d="M0 0 C0 9.24 0 18.48 0 28 C2.31 28 4.62 28 7 28 C7.99 28.99 7.99 28.99 9 30 C7.02 29.67 5.04 29.34 3 29 C3.11001624 33.56299068 3.24061611 38.12516706 3.375 42.6875 C3.4059375 43.98107422 3.436875 45.27464844 3.46875 46.60742188 C3.52675781 48.47817383 3.52675781 48.47817383 3.5859375 50.38671875 C3.6173584 51.53358154 3.6487793 52.68044434 3.68115234 53.86206055 C3.99535056 56.95424257 4.85516561 59.14404598 6 62 C5.67 62.99 5.34 63.98 5 65 C4.65066406 64.28972656 4.30132812 63.57945313 3.94140625 62.84765625 C3.48636719 61.92855469 3.03132813 61.00945312 2.5625 60.0625 C2.11003906 59.14597656 1.65757813 58.22945312 1.19140625 57.28515625 C0.19474606 55.09471096 0.19474606 55.09471096 -1 54 C-1.15582303 52.65984779 -1.25044142 51.31241097 -1.31640625 49.96484375 C-1.35830078 49.15595703 -1.40019531 48.34707031 -1.44335938 47.51367188 C-1.48267578 46.66353516 -1.52199219 45.81339844 -1.5625 44.9375 C-1.60568359 44.08349609 -1.64886719 43.22949219 -1.69335938 42.34960938 C-1.79976702 40.23327963 -1.90041731 38.11666187 -2 36 C-2.49129395 36.39912598 -2.98258789 36.79825195 -3.48876953 37.20947266 C-8.46085646 41.20561349 -13.70058141 43.99065352 -19.4609375 46.703125 C-22.08380872 47.87842324 -22.08380872 47.87842324 -24 50 C-24.16677282 53.58343976 -24.16677282 53.58343976 -24 57 C-26.3535311 57.79359736 -28.70778883 58.58491783 -31.0625 59.375 C-31.71927734 59.59671875 -32.37605469 59.8184375 -33.05273438 60.046875 C-50.22994164 65.80081635 -50.22994164 65.80081635 -54.17578125 64.015625 C-54.77777344 63.68046875 -55.37976563 63.3453125 -56 63 C-55.71872579 61.51882199 -55.42466268 60.04006751 -55.125 58.5625 C-54.96257813 57.73878906 -54.80015625 56.91507813 -54.6328125 56.06640625 C-54.31957031 55.04353516 -54.31957031 55.04353516 -54 54 C-53.01 53.505 -53.01 53.505 -52 53 C-51.67 47.39 -51.34 41.78 -51 36 C-49.68 35.34 -48.36 34.68 -47 34 C-46.34 33.01 -45.68 32.02 -45 31 C-45.99 29.68 -46.98 28.36 -48 27 C-47.443125 26.773125 -46.88625 26.54625 -46.3125 26.3125 C-43.85703864 25.07557926 -43.85703864 25.07557926 -41.9375 22.75 C-38.81637113 19.49565222 -35.01870466 17.68904308 -31.0546875 15.62109375 C-26.81996399 13.37376606 -22.73319026 10.89365537 -18.62890625 8.41796875 C-16.35034912 7.18896988 -14.5265753 6.45992033 -12 6 C-12 5.34 -12 4.68 -12 4 C-10.75539217 3.32332002 -9.50403104 2.65905281 -8.25 2 C-7.55390625 1.62875 -6.8578125 1.2575 -6.140625 0.875 C-4 0 -4 0 0 0 Z M1 29 C0.13036913 31.99706695 -0.11763099 34.64956526 -0.09765625 37.765625 C-0.09443359 38.65507813 -0.09121094 39.54453125 -0.08789062 40.4609375 C-0.07951172 41.38132812 -0.07113281 42.30171875 -0.0625 43.25 C-0.05798828 44.18585937 -0.05347656 45.12171875 -0.04882812 46.0859375 C-0.03706918 48.39069041 -0.02063426 50.69531227 0 53 C0.66 53.33 1.32 53.66 2 54 C2 45.75 2 37.5 2 29 C1.67 29 1.34 29 1 29 Z " fill="#FAB331" transform="translate(65,5)"/>
<path d="M0 0 C10.56740322 1.81304736 10.56740322 1.81304736 14.625 4.5625 C19.00031291 7.38505991 23.45003207 9.9737665 28 12.5 C33.31149302 15.46660746 38.56747222 18.49904187 43.76171875 21.66796875 C46.71800369 23.42729365 49.74628442 25.03957184 52.796875 26.62890625 C58.68640663 30.29419987 58.68640663 30.29419987 61 33 C61.64200091 35.84226023 61.89113889 37.8406463 61.8671875 40.6796875 C61.8776712 41.41067657 61.88815491 42.14166565 61.8989563 42.89480591 C61.91176004 44.43616678 61.90916907 45.97772354 61.89208984 47.51904297 C61.87508024 49.86393859 61.93253124 52.1990395 61.99609375 54.54296875 C62.09703292 65.36590747 62.09703292 65.36590747 59.29345703 69.54199219 C57.27250897 71.33849459 55.35501936 72.68270216 53 74 C52.33871094 74.43489746 51.67742187 74.86979492 50.99609375 75.31787109 C49.125 76.5 49.125 76.5 46 78 C45.01 77.505 45.01 77.505 44 77 C44 76.01 44 75.02 44 74 C45.98 74 47.96 74 50 74 C49.7525 72.948125 49.505 71.89625 49.25 70.8125 C49.1675 69.554375 49.085 68.29625 49 67 C49.9590625 65.93265625 49.9590625 65.93265625 50.9375 64.84375 C53.82347588 60.86460144 53.66664264 57.48812612 53.75 52.6875 C53.77964844 51.85154297 53.80929688 51.01558594 53.83984375 50.15429688 C53.91016107 48.10337515 53.95738973 46.05168438 54 44 C53.34 44 52.68 44 52 44 C51.505 40.04 51.505 40.04 51 36 C50.04351562 36.44214844 49.08703125 36.88429687 48.1015625 37.33984375 C43.6476477 39.24850427 39.06892967 40.40001898 34.375 41.5625 C32.71537707 41.97740573 31.05649573 42.39529114 29.3984375 42.81640625 C28.62467773 43.00960449 27.85091797 43.20280273 27.05371094 43.40185547 C24.84128061 43.97623423 24.84128061 43.97623423 22.3515625 45.35546875 C19.2854052 46.1958607 17.5743639 45.30502355 14.8347168 43.83862305 C14.22926025 43.47937744 13.62380371 43.12013184 13 42.75 C12.37714111 42.3888208 11.75428223 42.0276416 11.11254883 41.65551758 C5.59582991 38.20839039 2.97380782 34.2081218 1 28 C0.67 27.01 0.34 26.02 0 25 C-0.08266486 23.08093083 -0.10740663 21.15910526 -0.09765625 19.23828125 C-0.09443359 18.12001953 -0.09121094 17.00175781 -0.08789062 15.84960938 C-0.07951172 14.68236328 -0.07113281 13.51511719 -0.0625 12.3125 C-0.05573242 10.54422852 -0.05573242 10.54422852 -0.04882812 8.74023438 C-0.03703273 5.82677211 -0.0205727 2.91341137 0 0 Z " fill="#F17134" transform="translate(68,34)"/>
<path d="M0 0 C-0.556875 0.268125 -1.11375 0.53625 -1.6875 0.8125 C-4.0839757 1.99898377 -4.0839757 1.99898377 -6.5625 3.625 C-9 5 -9 5 -12 5 C-12 5.66 -12 6.32 -12 7 C-12.55300781 7.268125 -13.10601562 7.53625 -13.67578125 7.8125 C-16.23781317 9.12150454 -18.70591086 10.5439477 -21.1875 12 C-22.23808594 12.61488281 -23.28867187 13.22976562 -24.37109375 13.86328125 C-27.01333779 15.41610775 -29.64993777 16.97825281 -32.28515625 18.54296875 C-33.39370972 19.19942383 -33.39370972 19.19942383 -34.5246582 19.86914062 C-35.97122408 20.72612973 -37.4164524 21.58538203 -38.86010742 22.44726562 C-44.53441028 25.80682919 -50.35066963 28.75031586 -56.3125 31.5625 C-59.59516017 33.30350406 -59.59516017 33.30350406 -62 36 C-62.5932341 40.54134498 -62.51496975 45.10319266 -62.50097656 49.6784668 C-62.50000457 51.9269225 -62.54161356 54.17195948 -62.5859375 56.41992188 C-62.59114515 57.8515554 -62.59383268 59.28320076 -62.59375 60.71484375 C-62.60083984 62.01542725 -62.60792969 63.31601074 -62.61523438 64.65600586 C-62.29747305 68.14314278 -62.29747305 68.14314278 -59.65820312 70.37329102 C-57.19535225 71.88045261 -54.7597819 72.96167145 -52.08203125 74.0234375 C-48.4096354 75.74594963 -45.10773593 78.08223653 -41.71484375 80.29296875 C-38.78555074 82.13484076 -35.80819827 83.68349901 -32.69140625 85.17578125 C-30.37017788 86.30691101 -28.20399437 87.656101 -26 89 C-18.9707752 93.25981662 -18.9707752 93.25981662 -11 95 C-11 95.66 -11 96.32 -11 97 C-9.68 97 -8.36 97 -7 97 C-6.67 96.34 -6.34 95.68 -6 95 C-5.34 95 -4.68 95 -4 95 C-4 96.65 -4 98.3 -4 100 C-3.34 100 -2.68 100 -2 100 C-1.90109336 95.64011928 -1.82851624 91.28083327 -1.78027344 86.92016602 C-1.76016241 85.43697739 -1.73286926 83.95386801 -1.69824219 82.47094727 C-1.64969648 80.33850565 -1.62702805 78.20711223 -1.609375 76.07421875 C-1.58842773 74.79119873 -1.56748047 73.50817871 -1.54589844 72.1862793 C-1.67888423 68.90846753 -1.67888423 68.90846753 -4.02441406 67.05786133 C-4.67635742 66.70876709 -5.32830078 66.35967285 -6 66 C-5.67 65.34 -5.34 64.68 -5 64 C-1.74035545 66.1141188 -0.18592868 67.14724751 0.65942383 71.02441406 C0.67513428 72.17651367 0.69084473 73.32861328 0.70703125 74.515625 C0.75053711 76.39121094 0.75053711 76.39121094 0.79492188 78.3046875 C0.80072266 79.60664062 0.80652344 80.90859375 0.8125 82.25 C0.83763672 83.56742187 0.86277344 84.88484375 0.88867188 86.2421875 C0.9476013 89.49509156 0.98384097 92.74664795 1 96 C1.91394531 95.22269531 2.82789062 94.44539063 3.76953125 93.64453125 C11.75 87 11.75 87 17 87 C17 86.34 17 85.68 17 85 C19.31 83.68 21.62 82.36 24 81 C20.14519404 76.75412677 15.68171844 74.47182899 10.6796875 71.78125 C7.9849131 69.98997139 7.06408506 68.99520239 6 66 C11.86160966 68.7521779 17.51717751 71.78687445 23.0625 75.125 C24.16722656 75.78757812 25.27195312 76.45015625 26.41015625 77.1328125 C29 79 29 79 30 82 C26.7121022 83.84015498 23.41908674 85.67095047 20.125 87.5 C19.18785156 88.02464844 18.25070313 88.54929687 17.28515625 89.08984375 C16.38925781 89.58613281 15.49335937 90.08242187 14.5703125 90.59375 C13.74289551 91.05458984 12.91547852 91.51542969 12.06298828 91.99023438 C10 93 10 93 8 93 C8 93.66 8 94.32 8 95 C6.68 95.33 5.36 95.66 4 96 C3.67 107.55 3.34 119.1 3 131 C4.32 131.33 5.64 131.66 7 132 C4.66705225 132.04241723 2.33297433 132.04092937 0 132 C-1 131 -1 131 -1.11352539 128.22436523 C-1.10828857 127.01466064 -1.10305176 125.80495605 -1.09765625 124.55859375 C-1.09443359 123.25341797 -1.09121094 121.94824219 -1.08789062 120.60351562 C-1.07953401 119.2148431 -1.07106905 117.82617123 -1.0625 116.4375 C-1.05748666 115.04492344 -1.05292347 113.65234519 -1.04882812 112.25976562 C-1.03699434 108.8398013 -1.0205088 105.41992156 -1 102 C-1.57572754 102.04205566 -2.15145508 102.08411133 -2.74462891 102.12744141 C-8.40170393 102.3653503 -11.58576885 101.66221007 -16.375 98.375 C-17.49190216 97.63302155 -18.6104194 96.89346904 -19.73046875 96.15625 C-20.80941406 95.4446875 -21.88835938 94.733125 -23 94 C-24.88246261 92.93436029 -26.77763585 91.89071276 -28.6875 90.875 C-33.03029944 88.54962258 -37.24517363 86.06742623 -41.453125 83.5078125 C-44.18334168 81.89145722 -46.95581536 80.37781822 -49.75 78.875 C-53.66299867 76.75822247 -57.39772416 74.61164998 -61 72 C-61.53544434 71.62198242 -62.07088867 71.24396484 -62.62255859 70.85449219 C-64.74893222 67.99168927 -64.50755653 64.95188249 -64.5390625 61.515625 C-64.55141937 60.78180603 -64.56377625 60.04798706 -64.57650757 59.29193115 C-64.59606842 57.73864709 -64.607305 56.18523914 -64.61083984 54.63183594 C-64.62487729 52.27064 -64.69212914 49.91481189 -64.76171875 47.5546875 C-64.94430963 34.91455644 -64.94430963 34.91455644 -60.6484375 30.421875 C-58.09382616 28.35034938 -57.37859174 28 -54 28 C-54 27.34 -54 26.68 -54 26 C-47.375 23 -47.375 23 -44 23 C-44 22.34 -44 21.68 -44 21 C-38.25 18 -38.25 18 -36 18 C-36 17.34 -36 16.68 -36 16 C-35.195625 15.87625 -34.39125 15.7525 -33.5625 15.625 C-32.716875 15.41875 -31.87125 15.2125 -31 15 C-30.67 14.34 -30.34 13.68 -30 13 C-25.5 10 -25.5 10 -23 10 C-22.67 9.34 -22.34 8.68 -22 8 C-21.34 8.33 -20.68 8.66 -20 9 C-20 8.34 -20 7.68 -20 7 C-19.01 7 -18.02 7 -17 7 C-17 6.34 -17 5.68 -17 5 C-15.35 4.67 -13.7 4.34 -12 4 C-12 3.34 -12 2.68 -12 2 C-7.8794254 0.00214565 -4.54805635 -0.17835515 0 0 Z M1 98 C-0.46098845 100.9219769 -0.11134901 103.49893475 -0.09765625 106.7578125 C-0.0962413 107.42086395 -0.09482635 108.08391541 -0.09336853 108.76705933 C-0.08776754 110.88641863 -0.075215 113.00567259 -0.0625 115.125 C-0.05748512 116.56119639 -0.05292219 117.99739444 -0.04882812 119.43359375 C-0.03779782 122.95576345 -0.02053259 126.47787145 0 130 C0.66 130.33 1.32 130.66 2 131 C2 120.11 2 109.22 2 98 C1.67 98 1.34 98 1 98 Z " fill="#FEFAF4" transform="translate(65,4)"/>
<path d="M0 0 C0.08096803 1.45742463 0.13917774 2.91612807 0.1875 4.375 C0.23970703 5.59316406 0.23970703 5.59316406 0.29296875 6.8359375 C0.19628906 7.55007812 0.09960938 8.26421875 0 9 C-0.99 9.66 -1.98 10.32 -3 11 C-2.67 11.99 -2.34 12.98 -2 14 C-1.34 14 -0.68 14 0 14 C0 15.65 0 17.3 0 19 C-1.98 19.33 -3.96 19.66 -6 20 C-5.44570312 20.19335938 -4.89140625 20.38671875 -4.3203125 20.5859375 C-3.59585938 20.84632812 -2.87140625 21.10671875 -2.125 21.375 C-1.40570313 21.63023438 -0.68640625 21.88546875 0.0546875 22.1484375 C2 23 2 23 4 25 C4.598125 24.649375 5.19625 24.29875 5.8125 23.9375 C8 23 8 23 11 24 C11 24.66 11 25.32 11 26 C10.34 26 9.68 26 9 26 C8.34 27.32 7.68 28.64 7 30 C5.35 30 3.7 30 2 30 C2 30.99 2 31.98 2 33 C0.35 33 -1.3 33 -3 33 C-3.66 34.32 -4.32 35.64 -5 37 C-6.98 37 -8.96 37 -11 37 C-11.33 38.32 -11.66 39.64 -12 41 C-13.32 41 -14.64 41 -16 41 C-16.04951788 36.5159659 -16.08577526 32.03207761 -16.10986328 27.54785156 C-16.11990744 26.02308377 -16.13354531 24.49833516 -16.15087891 22.97363281 C-16.17519738 20.77924862 -16.18649889 18.58511958 -16.1953125 16.390625 C-16.20578613 15.07094727 -16.21625977 13.75126953 -16.22705078 12.39160156 C-16.0179275 9.26779441 -15.66605136 7.59419762 -14 5 C-13.01 5 -12.02 5 -11 5 C-11 4.34 -11 3.68 -11 3 C-7.14243493 0.84694043 -4.44870215 -0.39253254 0 0 Z " fill="#ED5C13" transform="translate(84,94)"/>
<path d="M0 0 C5.95262909 -0.76315758 10.33504709 1.49891973 15 5 C16.5625 7.8125 16.5625 7.8125 17 10 C18.65 10 20.3 10 22 10 C22.66 11.32 23.32 12.64 24 14 C20.93882432 16.62386487 20.26826873 17 16 17 C15.67 17.66 15.34 18.32 15 19 C15 18.34 15 17.68 15 17 C14.34 17 13.68 17 13 17 C12.67 18.65 12.34 20.3 12 22 C9.69 22 7.38 22 5 22 C5 22.66 5 23.32 5 24 C6.65 24 8.3 24 10 24 C10 24.66 10 25.32 10 26 C9.01 26 8.02 26 7 26 C7 26.66 7 27.32 7 28 C5.35 28 3.7 28 2 28 C2 26.68 2 25.36 2 24 C0.68 23.67 -0.64 23.34 -2 23 C-1.86149295 19.54133208 -1.71295273 16.08316725 -1.5625 12.625 C-1.52318359 11.64015625 -1.48386719 10.6553125 -1.44335938 9.640625 C-1.40146484 8.69960938 -1.35957031 7.75859375 -1.31640625 6.7890625 C-1.27974854 5.91975098 -1.24309082 5.05043945 -1.20532227 4.15478516 C-1 2 -1 2 0 0 Z " fill="#F27031" transform="translate(71,37)"/>
<path d="M0 0 C0 3 0 3 -1 6 C-1 6.99 -1 7.98 -1 9 C-3 12 -3 12 -6 13 C-6.33 18.61 -6.66 24.22 -7 30 C-7.99 30.33 -8.98 30.66 -10 31 C-10.80563638 33.10584438 -10.80563638 33.10584438 -11.1875 35.5625 C-11.34605469 36.38878906 -11.50460938 37.21507812 -11.66796875 38.06640625 C-11.77753906 38.70449219 -11.88710937 39.34257813 -12 40 C-11.01 40.33 -10.02 40.66 -9 41 C-9.350625 41.5775 -9.70125 42.155 -10.0625 42.75 C-11.14917407 45.35801776 -10.93065133 46.39417629 -10 49 C-12.91517292 47.92598892 -14.77810176 47.22189824 -17 45 C-17.23634823 42.46627161 -17.35221709 40.04515412 -17.37109375 37.5078125 C-17.38012222 36.76546356 -17.3891507 36.02311462 -17.39845276 35.25827026 C-17.41296964 33.68638144 -17.42184558 32.11443199 -17.42553711 30.54248047 C-17.437423 28.14056085 -17.48657744 25.74121985 -17.53710938 23.33984375 C-17.54657494 21.81251254 -17.55380934 20.28516555 -17.55859375 18.7578125 C-17.57812607 18.04102325 -17.59765839 17.32423401 -17.61778259 16.58572388 C-17.58363086 12.79870138 -17.32340056 11.32241518 -14.59619141 8.60351562 C-13.73944824 8.07435547 -12.88270508 7.54519531 -12 7 C-11.30777344 6.53335938 -10.61554687 6.06671875 -9.90234375 5.5859375 C-9.25394531 5.18632813 -8.60554687 4.78671875 -7.9375 4.375 C-6.96103516 3.76785156 -6.96103516 3.76785156 -5.96484375 3.1484375 C-4.01381505 2.0080748 -2.03240208 0.98677874 0 0 Z " fill="#FBC241" transform="translate(21,28)"/>
<path d="M0 0 C0.78375 0.04125 1.5675 0.0825 2.375 0.125 C2.44921454 4.05760944 2.50363136 7.98994722 2.53979492 11.9230957 C2.56228333 13.91827701 2.60040198 15.91326213 2.63867188 17.90820312 C2.64833984 19.16181641 2.65800781 20.41542969 2.66796875 21.70703125 C2.69153442 23.44303589 2.69153442 23.44303589 2.71557617 25.21411133 C2.375 28.125 2.375 28.125 0.9934082 30.0456543 C-0.625 31.125 -0.625 31.125 -2.8125 30.8125 C-3.410625 30.585625 -4.00875 30.35875 -4.625 30.125 C-4.625 31.115 -4.625 32.105 -4.625 33.125 C-6.275 33.125 -7.925 33.125 -9.625 33.125 C-9.625 31.805 -9.625 30.485 -9.625 29.125 C-9.70045619 27.41363311 -9.78594737 25.70269296 -9.87890625 23.9921875 C-9.92853516 23.02152344 -9.97816406 22.05085938 -10.02929688 21.05078125 C-10.1351803 19.00893053 -10.24458287 16.9672594 -10.35742188 14.92578125 C-10.40576172 13.95769531 -10.45410156 12.98960938 -10.50390625 11.9921875 C-10.5510376 11.10644043 -10.59816895 10.22069336 -10.64672852 9.30810547 C-10.625 7.125 -10.625 7.125 -9.625 5.125 C-10.285 5.125 -10.945 5.125 -11.625 5.125 C-11.625 4.465 -11.625 3.805 -11.625 3.125 C-10.305 3.125 -8.985 3.125 -7.625 3.125 C-7.625 3.785 -7.625 4.445 -7.625 5.125 C-6.305 5.125 -4.985 5.125 -3.625 5.125 C-3.955 4.135 -4.285 3.145 -4.625 2.125 C-2.625 0.125 -2.625 0.125 0 0 Z " fill="#FA9F1B" transform="translate(61.625,10.875)"/>
<path d="M0 0 C2.4519043 1.03222656 2.4519043 1.03222656 5 3 C5.55947361 5.69884562 5.77225509 7.77482764 5.76953125 10.484375 C5.7814299 11.21819397 5.79332855 11.95201294 5.80558777 12.70806885 C5.82212892 14.26135022 5.82548717 15.81481975 5.81665039 17.36816406 C5.81253399 19.73049322 5.87739882 22.08416005 5.94726562 24.4453125 C6.07968192 35.38202571 6.07968192 35.38202571 3.29785156 39.55078125 C1.27516817 41.34747174 -0.64113067 42.6868659 -3 44 C-3.99205444 44.65210449 -3.99205444 44.65210449 -5.00415039 45.31738281 C-6.875 46.5 -6.875 46.5 -10 48 C-10.66 47.67 -11.32 47.34 -12 47 C-12 46.01 -12 45.02 -12 44 C-10.02 44 -8.04 44 -6 44 C-6.37125 42.4221875 -6.37125 42.4221875 -6.75 40.8125 C-6.8325 39.554375 -6.915 38.29625 -7 37 C-6.0409375 35.93265625 -6.0409375 35.93265625 -5.0625 34.84375 C-2.17652412 30.86460144 -2.33335736 27.48812612 -2.25 22.6875 C-2.20552734 21.43356445 -2.20552734 21.43356445 -2.16015625 20.15429688 C-2.08983893 18.10337515 -2.04261027 16.05168438 -2 14 C-2.66 14 -3.32 14 -4 14 C-4 11.36 -4 8.72 -4 6 C-3.34 6 -2.68 6 -2 6 C-2 5.34 -2 4.68 -2 4 C-1.01 4 -0.02 4 1 4 C0.67 2.68 0.34 1.36 0 0 Z " fill="#F48B37" transform="translate(124,64)"/>
<path d="M0 0 C4.875 2.875 4.875 2.875 6 4 C6.1584265 6.0708472 6.25124422 8.14678029 6.31640625 10.22265625 C6.35830078 11.48271484 6.40019531 12.74277344 6.44335938 14.04101562 C6.48317596 15.38150736 6.52288814 16.7220022 6.5625 18.0625 C6.60568042 19.40691523 6.64929456 20.7513166 6.69335938 22.09570312 C6.79985358 25.3970234 6.9018646 28.69842236 7 32 C7.91394531 31.22269531 8.82789062 30.44539063 9.76953125 29.64453125 C17.75 23 17.75 23 23 23 C23 22.34 23 21.68 23 21 C26.465 19.02 26.465 19.02 30 17 C26.14519404 12.75412677 21.68171844 10.47182899 16.6796875 7.78125 C13.9849131 5.98997139 13.06408506 4.99520239 12 2 C17.86160966 4.7521779 23.51717751 7.78687445 29.0625 11.125 C30.16722656 11.78757812 31.27195313 12.45015625 32.41015625 13.1328125 C35 15 35 15 36 18 C32.7121022 19.84015498 29.41908674 21.67095047 26.125 23.5 C25.18785156 24.02464844 24.25070313 24.54929687 23.28515625 25.08984375 C21.94130859 25.83427734 21.94130859 25.83427734 20.5703125 26.59375 C19.74289551 27.05458984 18.91547852 27.51542969 18.06298828 27.99023438 C16 29 16 29 14 29 C14 29.66 14 30.32 14 31 C12.68 31.33 11.36 31.66 10 32 C9.67 43.55 9.34 55.1 9 67 C10.32 67.33 11.64 67.66 13 68 C10.66705225 68.04241723 8.33297433 68.04092937 6 68 C5 67 5 67 4.88647461 64.22436523 C4.89171143 63.01466064 4.89694824 61.80495605 4.90234375 60.55859375 C4.90556641 59.25341797 4.90878906 57.94824219 4.91210938 56.60351562 C4.92046599 55.2148431 4.92893095 53.82617123 4.9375 52.4375 C4.94251334 51.04492344 4.94707653 49.65234519 4.95117188 48.25976562 C4.96300566 44.8398013 4.9794912 41.41992156 5 38 C4.22567627 38.02707031 3.45135254 38.05414063 2.65356445 38.08203125 C-0.68415265 37.97885037 -2.12257405 36.92711113 -4.8125 35 C-5.60269531 34.443125 -6.39289062 33.88625 -7.20703125 33.3125 C-7.79871094 32.879375 -8.39039063 32.44625 -9 32 C-7.68 31.67 -6.36 31.34 -5 31 C-5 31.66 -5 32.32 -5 33 C-3.68 33 -2.36 33 -1 33 C-0.67 32.34 -0.34 31.68 0 31 C0.66 31 1.32 31 2 31 C2 32.65 2 34.3 2 36 C2.66 36 3.32 36 4 36 C4.09890664 31.64011928 4.17148376 27.28083327 4.21972656 22.92016602 C4.23983759 21.43697739 4.26713074 19.95386801 4.30175781 18.47094727 C4.35030352 16.33850565 4.37297195 14.20711223 4.390625 12.07421875 C4.4220459 10.14968872 4.4220459 10.14968872 4.45410156 8.1862793 C4.3352162 4.90945979 4.3352162 4.90945979 1.97558594 3.18286133 C1.32364258 2.79251709 0.67169922 2.40217285 0 2 C0 1.34 0 0.68 0 0 Z M7 34 C5.53901155 36.9219769 5.88865099 39.49893475 5.90234375 42.7578125 C5.9037587 43.42086395 5.90517365 44.08391541 5.90663147 44.76705933 C5.91223246 46.88641863 5.924785 49.00567259 5.9375 51.125 C5.94251488 52.56119639 5.94707781 53.99739444 5.95117188 55.43359375 C5.96220218 58.95576345 5.97946741 62.47787145 6 66 C6.66 66.33 7.32 66.66 8 67 C8 56.11 8 45.22 8 34 C7.67 34 7.34 34 7 34 Z " fill="#F6CFA0" transform="translate(59,68)"/>
<path d="M0 0 C0 9.24 0 18.48 0 28 C2.31 28 4.62 28 7 28 C7.66 28.66 8.32 29.32 9 30 C7.02 29.67 5.04 29.34 3 29 C3.11001624 33.56299068 3.24061611 38.12516706 3.375 42.6875 C3.4059375 43.98107422 3.436875 45.27464844 3.46875 46.60742188 C3.50742188 47.85458984 3.54609375 49.10175781 3.5859375 50.38671875 C3.63306885 52.10701294 3.63306885 52.10701294 3.68115234 53.86206055 C3.99535056 56.95424257 4.85516561 59.14404598 6 62 C5.67 62.99 5.34 63.98 5 65 C4.65066406 64.28972656 4.30132812 63.57945313 3.94140625 62.84765625 C3.48636719 61.92855469 3.03132813 61.00945312 2.5625 60.0625 C2.11003906 59.14597656 1.65757813 58.22945312 1.19140625 57.28515625 C0.19474606 55.09471096 0.19474606 55.09471096 -1 54 C-1.28009773 51.2208081 -1.48120888 48.47516627 -1.625 45.6875 C-1.67003662 44.82479492 -1.71507324 43.96208984 -1.76147461 43.07324219 C-2.28064466 30.71246176 -1.5901094 18.34813945 -1 6 C-2.98 6.66 -4.96 7.32 -7 8 C-7 8.99 -7 9.98 -7 11 C-8.32 11 -9.64 11 -11 11 C-11 10.34 -11 9.68 -11 9 C-12.32 9 -13.64 9 -15 9 C-15 9.66 -15 10.32 -15 11 C-14.34 11 -13.68 11 -13 11 C-13 11.66 -13 12.32 -13 13 C-14.98 13.99 -16.96 14.98 -19 16 C-19.33 15.34 -19.66 14.68 -20 14 C-20.66 14 -21.32 14 -22 14 C-21.02738378 10.72847271 -20.34232413 9.25454871 -17.5625 7.1875 C-15 6 -15 6 -12 6 C-12 5.34 -12 4.68 -12 4 C-10.75539217 3.32332002 -9.50403104 2.65905281 -8.25 2 C-7.55390625 1.62875 -6.8578125 1.2575 -6.140625 0.875 C-4 0 -4 0 0 0 Z M1 29 C0.13036913 31.99706695 -0.11763099 34.64956526 -0.09765625 37.765625 C-0.09443359 38.65507813 -0.09121094 39.54453125 -0.08789062 40.4609375 C-0.07951172 41.38132812 -0.07113281 42.30171875 -0.0625 43.25 C-0.05798828 44.18585937 -0.05347656 45.12171875 -0.04882812 46.0859375 C-0.03706918 48.39069041 -0.02063426 50.69531227 0 53 C0.66 53.33 1.32 53.66 2 54 C2 45.75 2 37.5 2 29 C1.67 29 1.34 29 1 29 Z M-26 14 C-22 15 -22 15 -22 15 Z " fill="#F9C681" transform="translate(65,5)"/>
<path d="M0 0 C5.86160966 2.7521779 11.51717751 5.78687445 17.0625 9.125 C18.16722656 9.78757812 19.27195312 10.45015625 20.41015625 11.1328125 C23 13 23 13 24 16 C20.7121022 17.84015498 17.41908674 19.67095047 14.125 21.5 C13.18785156 22.02464844 12.25070313 22.54929687 11.28515625 23.08984375 C9.94130859 23.83427734 9.94130859 23.83427734 8.5703125 24.59375 C7.74289551 25.05458984 6.91547852 25.51542969 6.06298828 25.99023438 C4 27 4 27 2 27 C2 27.66 2 28.32 2 29 C1.13375 29.12375 1.13375 29.12375 0.25 29.25 C-2.6159304 30.20531013 -3.9990764 31.78469173 -6 34 C-5.75619076 30.70857526 -4.82041725 29.82896881 -2.375 27.5 C5.97639319 21 5.97639319 21 11 21 C11 20.34 11 19.68 11 19 C13.31 17.68 15.62 16.36 18 15 C14.14519404 10.75412677 9.68171844 8.47182899 4.6796875 5.78125 C1.9849131 3.98997139 1.06408506 2.99520239 0 0 Z " fill="#FCF6F2" transform="translate(71,70)"/>
<path d="M0 0 C0 0.66 0 1.32 0 2 C-3.08297412 3.62568217 -6.16644189 5.25042584 -9.25 6.875 C-10.55904297 7.56529297 -10.55904297 7.56529297 -11.89453125 8.26953125 C-12.73886719 8.71425781 -13.58320312 9.15898438 -14.453125 9.6171875 C-15.61569824 10.22989502 -15.61569824 10.22989502 -16.80175781 10.85498047 C-17.52717773 11.23283691 -18.25259766 11.61069336 -19 12 C-20.01465332 12.61125732 -20.01465332 12.61125732 -21.04980469 13.23486328 C-23 14 -23 14 -26.75 12.625 C-27.8225 12.08875 -28.895 11.5525 -30 11 C-30 10.34 -30 9.68 -30 9 C-24.68294186 6.56893866 -19.39482371 4.87411712 -13.75 3.375 C-12.16130013 2.94589779 -10.57275192 2.51623359 -8.984375 2.0859375 C-8.29053711 1.9007959 -7.59669922 1.7156543 -6.88183594 1.52490234 C-1.41488372 0 -1.41488372 0 0 0 Z " fill="#DF3B09" transform="translate(119,70)"/>
<path d="M0 0 C0.33 1.65 0.66 3.3 1 5 C-1.3535311 5.79359736 -3.70778883 6.58491783 -6.0625 7.375 C-6.71927734 7.59671875 -7.37605469 7.8184375 -8.05273438 8.046875 C-14.29605525 10.13823372 -20.46717005 12.04397611 -27 13 C-26.67 12.34 -26.34 11.68 -26 11 C-25.01 11 -24.02 11 -23 11 C-23 10.34 -23 9.68 -23 9 C-21.89591797 8.40251953 -21.89591797 8.40251953 -20.76953125 7.79296875 C-19.79371094 7.26316406 -18.81789063 6.73335937 -17.8125 6.1875 C-16.84957031 5.66542969 -15.88664062 5.14335938 -14.89453125 4.60546875 C-13.02102229 3.566316 -11.17714008 2.47101862 -9.375 1.3125 C-6.17594922 -0.45539649 -3.59113467 -0.21124322 0 0 Z " fill="#ED7710" transform="translate(40,57)"/>
<path d="M0 0 C0.33 0.66 0.66 1.32 1 2 C0.01 3.485 0.01 3.485 -1 5 C-1.30983745 7.79730608 -1.51369679 10.50696154 -1.625 13.3125 C-1.66294678 14.10833496 -1.70089355 14.90416992 -1.73999023 15.72412109 C-2.05250004 22.81759775 -2.10272998 29.90021682 -2 37 C-1.01 37.33 -0.02 37.66 1 38 C1.6875 40.0625 1.6875 40.0625 2 42 C-0.91517292 40.92598892 -2.77810176 40.22189824 -5 38 C-5.23634823 35.46627161 -5.35221709 33.04515412 -5.37109375 30.5078125 C-5.38012222 29.76546356 -5.3891507 29.02311462 -5.39845276 28.25827026 C-5.41296964 26.68638144 -5.42184558 25.11443199 -5.42553711 23.54248047 C-5.437423 21.14056085 -5.48657744 18.74121985 -5.53710938 16.33984375 C-5.54657494 14.81251254 -5.55380934 13.28516555 -5.55859375 11.7578125 C-5.57812607 11.04102325 -5.59765839 10.32423401 -5.61778259 9.58572388 C-5.59936523 7.54345703 -5.59936523 7.54345703 -5 4 C-2.46508789 1.51513672 -2.46508789 1.51513672 0 0 Z " fill="#F4BF4F" transform="translate(9,35)"/>
<path d="M0 0 C-0.33 0.99 -0.66 1.98 -1 3 C-2.32 3 -3.64 3 -5 3 C-4.67 4.98 -4.34 6.96 -4 9 C-4.99 9 -5.98 9 -7 9 C-7.33 9.99 -7.66 10.98 -8 12 C-8.99 12 -9.98 12 -11 12 C-10.814375 12.9075 -10.62875 13.815 -10.4375 14.75 C-9.63232388 20.17375579 -10.42178161 25.58253845 -11 31 C-11.66 31 -12.32 31 -13 31 C-13.05814085 27.41673499 -13.09364357 23.83359162 -13.125 20.25 C-13.14175781 19.23421875 -13.15851563 18.2184375 -13.17578125 17.171875 C-13.18222656 16.1921875 -13.18867187 15.2125 -13.1953125 14.203125 C-13.20578613 13.30239258 -13.21625977 12.40166016 -13.22705078 11.47363281 C-12.98721676 8.86073144 -12.32312064 7.24335334 -11 5 C-10.01 5 -9.02 5 -8 5 C-8 4.34 -8 3.68 -8 3 C-2.25 0 -2.25 0 0 0 Z " fill="#E7521B" transform="translate(81,94)"/>
<path d="M0 0 C2.4519043 1.03222656 2.4519043 1.03222656 5 3 C5.55947361 5.69884562 5.77225509 7.77482764 5.76953125 10.484375 C5.7814299 11.21819397 5.79332855 11.95201294 5.80558777 12.70806885 C5.82212892 14.26135022 5.82548717 15.81481975 5.81665039 17.36816406 C5.81253399 19.73049322 5.87739882 22.08416005 5.94726562 24.4453125 C6.07968192 35.38202571 6.07968192 35.38202571 3.29785156 39.55078125 C1.27516817 41.34747174 -0.64113067 42.6868659 -3 44 C-3.99205444 44.65210449 -3.99205444 44.65210449 -5.00415039 45.31738281 C-6.875 46.5 -6.875 46.5 -10 48 C-10.66 47.67 -11.32 47.34 -12 47 C-12 46.01 -12 45.02 -12 44 C-10.02 44 -8.04 44 -6 44 C-6 43.34 -6 42.68 -6 42 C-5.01 41.505 -5.01 41.505 -4 41 C-4 40.34 -4 39.68 -4 39 C-2.35 39 -0.7 39 1 39 C1.495 36.03 1.495 36.03 2 33 C2.33 33 2.66 33 3 33 C3.07408587 28.90666095 3.1285704 24.81358067 3.16479492 20.71972656 C3.17989358 19.32675378 3.20037444 17.93382862 3.22631836 16.54101562 C3.26265122 14.54057115 3.27811192 12.53978173 3.29296875 10.5390625 C3.3086792 9.33459473 3.32438965 8.13012695 3.34057617 6.88916016 C3.22818604 5.9357373 3.1157959 4.98231445 3 4 C2.01 3.34 1.02 2.68 0 2 C0 1.34 0 0.68 0 0 Z " fill="#EFC6A3" transform="translate(124,64)"/>
<path d="M0 0 C0.66 0 1.32 0 2 0 C2 2.31 2 4.62 2 7 C3.98 7 5.96 7 8 7 C8 7.66 8 8.32 8 9 C6.02 9 4.04 9 2 9 C2.185625 9.78375 2.37125 10.5675 2.5625 11.375 C3 14 3 14 2 16 C2.66 16 3.32 16 4 16 C3.67 16.99 3.34 17.98 3 19 C2.01 19 1.02 19 0 19 C0 18.01 0 17.02 0 16 C-0.99 16 -1.98 16 -3 16 C-3 15.34 -3 14.68 -3 14 C-2.34 14 -1.68 14 -1 14 C-1.01160156 13.15695313 -1.02320312 12.31390625 -1.03515625 11.4453125 C-1.04417969 10.34960938 -1.05320312 9.25390625 -1.0625 8.125 C-1.07410156 7.03445312 -1.08570312 5.94390625 -1.09765625 4.8203125 C-1 2 -1 2 0 0 Z " fill="#F65210" transform="translate(71,111)"/>
<path d="M0 0 C1.32 0.66 2.64 1.32 4 2 C3.01 2.495 3.01 2.495 2 3 C2 3.66 2 4.32 2 5 C3.65 5 5.3 5 7 5 C7 4.01 7 3.02 7 2 C8.32 2 9.64 2 11 2 C11 2.66 11 3.32 11 4 C8.63041318 5.57078271 6.27216528 7.02119041 3.8125 8.4375 C3.13896484 8.83259766 2.46542969 9.22769531 1.77148438 9.63476562 C-1.10137342 11.31924127 -3.98224837 12.98970745 -6.86328125 14.66015625 C-9.10215391 15.95320756 -9.10215391 15.95320756 -11 18 C-10.49396008 15.83125748 -10.00016187 14.00032373 -9 12 C-7.68 12 -6.36 12 -5 12 C-5 10.68 -5 9.36 -5 8 C-3.02 7.67 -1.04 7.34 1 7 C0.67 4.69 0.34 2.38 0 0 Z " fill="#F7A42C" transform="translate(50,39)"/>
<path d="M0 0 C0.99 0 1.98 0 3 0 C2.67 7.59 2.34 15.18 2 23 C2.99 23 3.98 23 5 23 C4.67 25.64 4.34 28.28 4 31 C3.34 31 2.68 31 2 31 C-0.0655473 24.23411279 -0.23960929 18.04406312 -0.125 11 C-0.11597656 9.93910156 -0.10695312 8.87820312 -0.09765625 7.78515625 C-0.07427524 5.18986362 -0.04150556 2.59505535 0 0 Z " fill="#FAA838" transform="translate(59,73)"/>
<path d="M0 0 C3 0 6 0 9 0 C9.33 1.32 9.66 2.64 10 4 C8.02 4.33 6.04 4.66 4 5 C4 6.32 4 7.64 4 9 C2.02 9 0.04 9 -2 9 C-2 8.34 -2 7.68 -2 7 C-2.99 7 -3.98 7 -5 7 C-5 6.34 -5 5.68 -5 5 C-3.35 4.67 -1.7 4.34 0 4 C0 2.68 0 1.36 0 0 Z " fill="#F7AB23" transform="translate(41,42)"/>
<path d="M0 0 C2.375 -0.125 2.375 -0.125 5 0 C5.66 0.66 6.32 1.32 7 2 C6.625 4.125 6.625 4.125 6 6 C4.02 6 2.04 6 0 6 C-0.33 7.32 -0.66 8.64 -1 10 C-2.32 10 -3.64 10 -5 10 C-5 7.36 -5 4.72 -5 2 C-4.01 2 -3.02 2 -2 2 C-2 2.99 -2 3.98 -2 5 C-1.01 4.67 -0.02 4.34 1 4 C1.33 3.34 1.66 2.68 2 2 C1.34 2 0.68 2 0 2 C0 1.34 0 0.68 0 0 Z " fill="#EF561A" transform="translate(73,125)"/>
<path d="M0 0 C2.97 0.495 2.97 0.495 6 1 C6.33 1.66 6.66 2.32 7 3 C5.68 3 4.36 3 3 3 C2.67 10.59 2.34 18.18 2 26 C1.34 25.67 0.68 25.34 0 25 C0 16.75 0 8.5 0 0 Z " fill="#E47341" transform="translate(68,34)"/>
<path d="M0 0 C0.99 0 1.98 0 3 0 C3 0.66 3 1.32 3 2 C5.97 2 8.94 2 12 2 C10.73948004 5.78155989 9.43553394 6.25618367 6.0625 8.25 C4.71865234 9.06210938 4.71865234 9.06210938 3.34765625 9.890625 C2.57292969 10.25671875 1.79820313 10.6228125 1 11 C0.34 10.67 -0.32 10.34 -1 10 C-0.01 9.34 0.98 8.68 2 8 C2.33 7.01 2.66 6.02 3 5 C2.01 5 1.02 5 0 5 C0 3.35 0 1.7 0 0 Z " fill="#EA7A33" transform="translate(101,108)"/>
<path d="M0 0 C4.89782868 1.25585351 8.34618543 3.51177594 12.42578125 6.3515625 C16.20863876 8.77396898 20.22886721 10.62355424 24.30078125 12.5078125 C27.0579224 14.03202078 28.89785571 15.67316096 31 18 C28.2992279 16.99685608 26.01173099 16.00802647 23.625 14.375 C20.94946894 12.71482903 20.94946894 12.71482903 17.3125 13 C16.219375 13 15.12625 13 14 13 C12 10 12 10 12 7 C11.13375 6.7525 10.2675 6.505 9.375 6.25 C5.80481983 4.92771105 3.05577189 3.25545068 0 1 C0 0.67 0 0.34 0 0 Z " fill="#F3C8B3" transform="translate(74,35)"/>
<path d="M0 0 C0 0.66 0 1.32 0 2 C-0.66 2 -1.32 2 -2 2 C-2.66 3.32 -3.32 4.64 -4 6 C-5.65 6 -7.3 6 -9 6 C-9 6.99 -9 7.98 -9 9 C-9.66 9 -10.32 9 -11 9 C-11 8.34 -11 7.68 -11 7 C-11.66 7 -12.32 7 -13 7 C-13.33 5.35 -13.66 3.7 -14 2 C-13.01 2 -12.02 2 -11 2 C-11 2.66 -11 3.32 -11 4 C-10.01 4 -9.02 4 -8 4 C-7.67 2.68 -7.34 1.36 -7 0 C-3.98968256 -0.93423645 -3.13349732 -1.04449911 0 0 Z " fill="#EE6226" transform="translate(95,118)"/>
<path d="M0 0 C-3.3850763 1.9839275 -6.77529847 3.95877926 -10.16796875 5.9296875 C-12.06520226 7.03809258 -13.95456593 8.15918916 -15.84375 9.28125 C-17.10400971 10.02110075 -18.3644232 10.76068963 -19.625 11.5 C-20.22844238 11.86222656 -20.83188477 12.22445312 -21.45361328 12.59765625 C-22.93477895 13.4602249 -24.46440104 14.23854597 -26 15 C-26.66 14.67 -27.32 14.34 -28 14 C-27.67 13.01 -27.34 12.02 -27 11 C-24.67793475 10.29508733 -22.34406932 9.62787571 -20 9 C-19.67 8.34 -19.34 7.68 -19 7 C-17.35 7 -15.7 7 -14 7 C-14 6.01 -14 5.02 -14 4 C-13.030625 3.71125 -12.06125 3.4225 -11.0625 3.125 C-7.89335797 2.35785318 -7.89335797 2.35785318 -7 0 C-2.52459016 -1.26229508 -2.52459016 -1.26229508 0 0 Z " fill="#ECB49C" transform="translate(100,120)"/>
<path d="M0 0 C0.33 0.66 0.66 1.32 1 2 C0.01 3.485 0.01 3.485 -1 5 C-1.99 5 -2.98 5 -4 5 C-3.93104723 9.48459681 -3.84304555 13.96829709 -3.73754883 18.45214844 C-3.7043412 19.9767834 -3.67629622 21.50154006 -3.65356445 23.02636719 C-3.61994042 25.22122954 -3.56762458 27.41498088 -3.51171875 29.609375 C-3.48553467 30.92905273 -3.45935059 32.24873047 -3.43237305 33.60839844 C-2.98895137 37.08666721 -2.38428309 38.50191527 0 41 C-3.875 39.125 -3.875 39.125 -5 38 C-5.29135878 33.20954533 -5.31402994 28.41638788 -5.35009766 23.61791992 C-5.36664569 22.00286437 -5.39392109 20.3878817 -5.43212891 18.77319336 C-5.48692972 16.44606501 -5.50877535 14.12065564 -5.5234375 11.79296875 C-5.54610687 11.07304245 -5.56877625 10.35311615 -5.59213257 9.6113739 C-5.58349609 7.55932617 -5.58349609 7.55932617 -5 4 C-2.46728516 1.51293945 -2.46728516 1.51293945 0 0 Z " fill="#F8DD9B" transform="translate(9,35)"/>
<path d="M0 0 C0 3 0 3 -1 6 C-1 6.99 -1 7.98 -1 9 C-4.3 9 -7.6 9 -11 9 C-8.90607642 4.81215285 -8.29607137 4.26655099 -4.375 2.25 C-3.55773437 1.82203125 -2.74046875 1.3940625 -1.8984375 0.953125 C-0.95871094 0.48132813 -0.95871094 0.48132813 0 0 Z " fill="#F3C348" transform="translate(21,28)"/>
<path d="M0 0 C0.12375 0.639375 0.2475 1.27875 0.375 1.9375 C0.58125 2.618125 0.7875 3.29875 1 4 C1.66 4.33 2.32 4.66 3 5 C3 5.66 3 6.32 3 7 C-1.75 6.125 -1.75 6.125 -4 5 C-4.99 5.495 -4.99 5.495 -6 6 C-6 6.66 -6 7.32 -6 8 C-8.97 7.505 -8.97 7.505 -12 7 C-9.20232475 3.70861735 -4.40323273 0 0 0 Z " fill="#EC6C29" transform="translate(93,87)"/>
<path d="M0 0 C-0.33 0.99 -0.66 1.98 -1 3 C-2.32 3 -3.64 3 -5 3 C-4.67 4.98 -4.34 6.96 -4 9 C-6.38564077 8.42415568 -8.66682784 7.77772405 -11 7 C-11 8.32 -11 9.64 -11 11 C-11.66 11 -12.32 11 -13 11 C-12.34 9.02 -11.68 7.04 -11 5 C-10.01 5 -9.02 5 -8 5 C-8 4.34 -8 3.68 -8 3 C-2.25 0 -2.25 0 0 0 Z " fill="#E46325" transform="translate(81,94)"/>
<path d="M0 0 C1.32 0 2.64 0 4 0 C4 1.65 4 3.3 4 5 C4.66 5 5.32 5 6 5 C6 5.66 6 6.32 6 7 C6.99 7.33 7.98 7.66 9 8 C8.67 8.99 8.34 9.98 8 11 C6.140625 10.81640625 6.140625 10.81640625 4 10 C2.734375 7.71484375 2.734375 7.71484375 1.75 4.9375 C1.41484375 4.01839844 1.0796875 3.09929687 0.734375 2.15234375 C0.49203125 1.44207031 0.2496875 0.73179688 0 0 Z " fill="#F77F4A" transform="translate(69,61)"/>
<path d="M0 0 C-1.8125 2 -1.8125 2 -4 4 C-4.99 4 -5.98 4 -7 4 C-7 3.34 -7 2.68 -7 2 C-7.66 2 -8.32 2 -9 2 C-9 3.98 -9 5.96 -9 8 C-9.66 7.67 -10.32 7.34 -11 7 C-11.625 4.9375 -11.625 4.9375 -12 3 C-8.57420105 -0.03051446 -4.40909835 -2.20454917 0 0 Z " fill="#F8A539" transform="translate(21,69)"/>
<path d="M0 0 C5.7607103 1.29322068 9.33195882 3.37988643 14 7 C13.01 7.495 13.01 7.495 12 8 C11.46375 7.71125 10.9275 7.4225 10.375 7.125 C6.96691549 5.51064418 3.7461871 5.37461871 0 5 C0 3.35 0 1.7 0 0 Z " fill="#F0B196" transform="translate(110,56)"/>
<path d="M0 0 C-1.3125 1.5 -1.3125 1.5 -3 3 C-3.99 3 -4.98 3 -6 3 C-6 3.66 -6 4.32 -6 5 C-7.65 4.67 -9.3 4.34 -11 4 C-11 3.34 -11 2.68 -11 2 C-3.57142857 -1.57142857 -3.57142857 -1.57142857 0 0 Z " fill="#E23E1B" transform="translate(100,77)"/>
<path d="M0 0 C2.64 0 5.28 0 8 0 C8 0.66 8 1.32 8 2 C6.02 2.99 4.04 3.98 2 5 C1.67 4.34 1.34 3.68 1 3 C0.34 3 -0.32 3 -1 3 C-0.67 2.01 -0.34 1.02 0 0 Z M-5 3 C-1 4 -1 4 -1 4 Z " fill="#F8A824" transform="translate(44,16)"/>
<path d="M0 0 C2.31 0 4.62 0 7 0 C4.84080034 2.32164728 2.65644515 3.94129719 -0.0625 5.5625 C-2.37209151 6.94309381 -4.08505492 8.08505492 -6 10 C-5.49396008 7.83125748 -5.00016187 6.00032373 -4 4 C-2.68 4 -1.36 4 0 4 C0 2.68 0 1.36 0 0 Z " fill="#F8D8AA" transform="translate(45,47)"/>
<path d="M0 0 C0.66 0.33 1.32 0.66 2 1 C2 1.33 2 1.66 2 2 C2.99 2.33 3.98 2.66 5 3 C0.66914029 4.29925791 -3.51474352 5.343621 -8 6 C-7.67 5.34 -7.34 4.68 -7 4 C-6.01 4 -5.02 4 -4 4 C-4 3.34 -4 2.68 -4 2 C-2.125 0.9375 -2.125 0.9375 0 0 Z " fill="#ED881E" transform="translate(21,64)"/>
<path d="M0 0 C3.64553172 1.2808625 5.16671013 2.16671013 8 5 C3.545 5.495 3.545 5.495 -1 6 C-0.34 5.01 0.32 4.02 1 3 C0.67 2.01 0.34 1.02 0 0 Z " fill="#E87542" transform="translate(93,47)"/>
<path d="M0 0 C0 0.66 0 1.32 0 2 C-0.66 2 -1.32 2 -2 2 C-2 2.66 -2 3.32 -2 4 C-3.98 4 -5.96 4 -8 4 C-7.67 2.68 -7.34 1.36 -7 0 C-3.98968256 -0.93423645 -3.13349732 -1.04449911 0 0 Z " fill="#EF6A19" transform="translate(95,118)"/>
<path d="M0 0 C0.99 0 1.98 0 3 0 C3.33 2.31 3.66 4.62 4 7 C2.68 7 1.36 7 0 7 C0 4.69 0 2.38 0 0 Z " fill="#EE8940" transform="translate(120,70)"/>
<path d="M0 0 C1.65 0 3.3 0 5 0 C5.33 1.32 5.66 2.64 6 4 C3.69 4 1.38 4 -1 4 C-0.67 2.68 -0.34 1.36 0 0 Z " fill="#E8751E" transform="translate(35,57)"/>
<path d="M0 0 C1.32 0 2.64 0 4 0 C4 2.97 4 5.94 4 9 C3.34 9 2.68 9 2 9 C1.34 6.03 0.68 3.06 0 0 Z " fill="#FC882A" transform="translate(122,68)"/>
<path d="M0 0 C-0.33 0.99 -0.66 1.98 -1 3 C-4.3 2.67 -7.6 2.34 -11 2 C-6.98764085 -0.6749061 -4.6342454 -1.48957888 0 0 Z " fill="#FCA231" transform="translate(43,63)"/>
<path d="M0 0 C1.32 0.33 2.64 0.66 4 1 C2.71475739 1.86380259 1.42157581 2.71580369 0.125 3.5625 C-0.59429687 4.03816406 -1.31359375 4.51382813 -2.0546875 5.00390625 C-2.69664063 5.33261719 -3.33859375 5.66132812 -4 6 C-4.66 5.67 -5.32 5.34 -6 5 C-6 4.01 -6 3.02 -6 2 C-4.02 2 -2.04 2 0 2 C0 1.34 0 0.68 0 0 Z " fill="#EDC1A2" transform="translate(118,106)"/>
<path d="M0 0 C3.93673644 1.31224548 6.22719294 2.91910327 9 6 C6.69 5.67 4.38 5.34 2 5 C1.34 3.35 0.68 1.7 0 0 Z " fill="#F1CE9F" transform="translate(43,59)"/>
<path d="M0 0 C0.33 0.66 0.66 1.32 1 2 C3.02463255 2.65213292 3.02463255 2.65213292 5 3 C4.67 3.66 4.34 4.32 4 5 C1.125 5.1875 1.125 5.1875 -2 5 C-2.66 4.01 -3.32 3.02 -4 2 C-2.68 1.34 -1.36 0.68 0 0 Z " fill="#FCB740" transform="translate(21,30)"/>
<path d="M0 0 C1.65 0 3.3 0 5 0 C1.81404865 2.63978826 -1.30970546 5.10498388 -5 7 C-5.66 6.67 -6.32 6.34 -7 6 C-3.25 3 -3.25 3 -1 3 C-0.67 2.01 -0.34 1.02 0 0 Z " fill="#F2CEB7" transform="translate(107,112)"/>
<path d="M0 0 C0 1.65 0 3.3 0 5 C-0.99 5 -1.98 5 -3 5 C-3 4.34 -3 3.68 -3 3 C-3.99 3.33 -4.98 3.66 -6 4 C-5.67 3.01 -5.34 2.02 -5 1 C-3 0 -3 0 0 0 Z " fill="#F8802D" transform="translate(120,72)"/>
<path d="M0 0 C1.98 0 3.96 0 6 0 C6 0.66 6 1.32 6 2 C6.66 2 7.32 2 8 2 C8 2.66 8 3.32 8 4 C6.35 4 4.7 4 3 4 C3 3.34 3 2.68 3 2 C2.01 2 1.02 2 0 2 C0 1.34 0 0.68 0 0 Z " fill="#FCAD19" transform="translate(36,47)"/>
<path d="M0 0 C1.32 0 2.64 0 4 0 C4 0.66 4 1.32 4 2 C4.99 2.33 5.98 2.66 7 3 C6.01 3.33 5.02 3.66 4 4 C4 4.66 4 5.32 4 6 C3.01 5.67 2.02 5.34 1 5 C1.33 4.01 1.66 3.02 2 2 C1.34 2 0.68 2 0 2 C0 1.34 0 0.68 0 0 Z " fill="#FBA416" transform="translate(50,14)"/>
<path d="M0 0 C1.65 0 3.3 0 5 0 C5 0.66 5 1.32 5 2 C5.66 2 6.32 2 7 2 C6.67 2.99 6.34 3.98 6 5 C5.01 5 4.02 5 3 5 C3 4.01 3 3.02 3 2 C2.01 2 1.02 2 0 2 C0 1.34 0 0.68 0 0 Z " fill="#EA560A" transform="translate(68,125)"/>
<path d="M0 0 C0.66 0.33 1.32 0.66 2 1 C1.34 2.65 0.68 4.3 0 6 C-2.97 5.505 -2.97 5.505 -6 5 C-4.06745228 2.9754262 -2.36841312 1.57894208 0 0 Z " fill="#DF7232" transform="translate(87,89)"/>
<path d="M0 0 C0.66 0 1.32 0 2 0 C1.67 1.32 1.34 2.64 1 4 C-0.32 4 -1.64 4 -3 4 C-3 5.32 -3 6.64 -3 8 C-3.66 8 -4.32 8 -5 8 C-4.34 6.02 -3.68 4.04 -3 2 C-2.01 2 -1.02 2 0 2 C0 1.34 0 0.68 0 0 Z " fill="#DB6F3F" transform="translate(73,97)"/>
<path d="M0 0 C0 0.66 0 1.32 0 2 C-3.13498292 3.85776765 -5.37471432 4.20140476 -9 4 C-9 3.34 -9 2.68 -9 2 C-5.62902617 0.50178941 -3.79557881 0 0 0 Z " fill="#F76F25" transform="translate(101,52)"/>
<path d="M0 0 C-1.26239712 0.86658615 -2.53527501 1.71792059 -3.8125 2.5625 C-4.87404297 3.27599609 -4.87404297 3.27599609 -5.95703125 4.00390625 C-8 5 -8 5 -11 4 C-7.9178096 0.4611888 -4.70112403 -2.35056201 0 0 Z " fill="#F5C9B8" transform="translate(100,120)"/>
<path d="M0 0 C0.66 0 1.32 0 2 0 C2.33 0.99 2.66 1.98 3 3 C3.66 3.66 4.32 4.32 5 5 C3.35 5.33 1.7 5.66 0 6 C0 4.02 0 2.04 0 0 Z " fill="#DE5D2B" transform="translate(68,129)"/>
<path d="M0 0 C0.66 0 1.32 0 2 0 C2.33 2.31 2.66 4.62 3 7 C2.01 7 1.02 7 0 7 C-1.125 2.25 -1.125 2.25 0 0 Z " fill="#ED853E" transform="translate(118,99)"/>
<path d="M0 0 C2.475 0.99 2.475 0.99 5 2 C4.01 2.99 3.02 3.98 2 5 C0.68 4.34 -0.64 3.68 -2 3 C-1 1 -1 1 0 0 Z " fill="#EB773E" transform="translate(81,40)"/>
<path d="M0 0 C1.32 0 2.64 0 4 0 C4 0.66 4 1.32 4 2 C1.1875 4.1875 1.1875 4.1875 -2 6 C-2.99 5.67 -3.98 5.34 -5 5 C-3.35 4.34 -1.7 3.68 0 3 C0 2.01 0 1.02 0 0 Z " fill="#F6D6A3" transform="translate(57,41)"/>
<path d="M0 0 C2.64 0.33 5.28 0.66 8 1 C7.67 2.32 7.34 3.64 7 5 C3.535 3.02 3.535 3.02 0 1 C0 0.67 0 0.34 0 0 Z " fill="#EEBA68" transform="translate(23,84)"/>
<path d="M0 0 C2.64 0.33 5.28 0.66 8 1 C8 2.32 8 3.64 8 5 C4.62496331 3.8141763 2.35277269 2.72426311 0 0 Z " fill="#E58150" transform="translate(76,72)"/>
<path d="M0 0 C1.32 0 2.64 0 4 0 C4 2.64 4 5.28 4 8 C2.22293791 5.33440687 1.12451727 2.9719385 0 0 Z " fill="#F5AC90" transform="translate(69,61)"/>
<path d="M0 0 C-0.33 0.66 -0.66 1.32 -1 2 C-2.98 2 -4.96 2 -7 2 C-7.33 1.34 -7.66 0.68 -8 0 C-4.71023192 -1.09658936 -3.28696233 -0.79953138 0 0 Z " fill="#FDB022" transform="translate(41,40)"/>
<path d="M0 0 C0 0.66 0 1.32 0 2 C-1.98 2.99 -3.96 3.98 -6 5 C-6.66 4.34 -7.32 3.68 -8 3 C-3.375 0 -3.375 0 0 0 Z " fill="#EFA433" transform="translate(64,5)"/>
<path d="" fill="#FFFFFF" transform="translate(0,0)"/>
<path d="" fill="#FFFFFF" transform="translate(0,0)"/>
<path d="" fill="#FFFFFF" transform="translate(0,0)"/>
<path d="" fill="#FFFFFF" transform="translate(0,0)"/>
<path d="" fill="#FFFFFF" transform="translate(0,0)"/>
<path d="" fill="#FFFFFF" transform="translate(0,0)"/>
<path d="" fill="#FFFFFF" transform="translate(0,0)"/>
<path d="" fill="#FFFFFF" transform="translate(0,0)"/>
</svg>
